<svg width="509" height="14" viewBox="0 0 509 14" fill="none" xmlns="http://www.w3.org/2000/svg">
<path d="M1.94785 7.12369C1.55859 7.15277 1.19032 7.32555 0.924427 7.61483C0.658528 7.90401 0.516724 8.28422 0.530281 8.67391C0.543839 9.0636 0.711725 9.43304 0.997077 9.70304C1.28243 9.97314 1.66182 10.1199 2.05215 10.1219C10.4757 10.1623 18.9023 10.1807 27.3238 10.1779C61.0145 10.1667 94.6796 9.81438 128.338 9.17015C246.126 6.97648 363.994 6.66193 481.693 12.1922C490.094 12.5931 498.525 13.0289 506.897 13.4964C507.291 13.5185 507.68 13.3864 507.978 13.1255C508.277 12.8646 508.459 12.497 508.487 12.1028C508.514 11.7086 508.383 11.3193 508.124 11.0199C507.865 10.7205 507.497 10.5361 507.103 10.5036C498.738 9.81367 490.311 9.16285 481.912 8.5543C364.226 0.115021 246.099 -1.0254 128.185 1.17161C94.4879 1.81657 60.8106 3.23635 27.1703 5.38036C18.7612 5.91636 10.3509 6.49781 1.94785 7.12369Z" fill="#F95607"/>
</svg>
